<?xml version="1.0" encoding="utf-8"?>
<!-- Generator: Adobe Illustrator 16.0.0, SVG Export Plug-In . SVG Version: 6.00 Build 0)  -->
<!DOCTYPE svg PUBLIC "-//W3C//DTD SVG 1.1//EN" "http://www.w3.org/Graphics/SVG/1.1/DTD/svg11.dtd">
<svg version="1.1" id="Layer_1" xmlns="http://www.w3.org/2000/svg" xmlns:xlink="http://www.w3.org/1999/xlink" x="0px" y="0px"
	 width="200px" height="50px" viewBox="0 0 200 50" enable-background="new 0 0 200 50" xml:space="preserve">
<rect fill="none" width="200" height="50"/>
<circle fill="#BB377D" cx="31" cy="25" r="21.667"/>
<g>
	<g>
		<path fill="#BB377D" d="M28.5,13.667c0.007,1.31,0.696,2.877,2.169,3.077c0.701,0.096,1.288,0.122,1.926-0.252
			c0.559-0.327,0.977-0.869,1.149-1.494c0.325-1.18-0.393-2.891-1.746-3.075c1.739,0.236,1.508,2.956,1.502,1.744
			c-0.007-1.363-1.132-2.5-2.5-2.5C29.643,11.167,28.493,12.304,28.5,13.667L28.5,13.667z"/>
	</g>
</g>
<g>
	<g>
		<path fill="#BB377D" d="M28.5,11.333c0.027,1.32,0.426,2.428,1.008,3.595c0.608,1.219,2.304,1.551,3.42,0.897
			c1.232-0.722,1.505-2.201,0.897-3.42c-0.063-0.125-0.125-0.251-0.186-0.377c-0.108-0.238-0.082-0.169,0.08,0.207
			c-0.037-0.09-0.07-0.182-0.101-0.274c-0.051-0.144-0.086-0.293-0.121-0.441c-0.048-0.268-0.043-0.209,0.017,0.174
			c-0.01-0.12-0.015-0.24-0.015-0.36c-0.028-1.362-1.116-2.5-2.5-2.5C29.659,8.833,28.472,9.971,28.5,11.333L28.5,11.333z"/>
	</g>
</g>
<g>
	<g>
		<path fill="#BB377D" d="M31.175,10.262c0.96,1.942,1.734,3.921,2.082,6.07c0.218,1.347,1.871,2.078,3.075,1.746
			c1.419-0.39,1.963-1.731,1.746-3.075c-0.414-2.56-1.443-4.952-2.585-7.264C34.063,4.847,29.751,7.382,31.175,10.262L31.175,10.262
			z"/>
	</g>
</g>
<path fill="none" stroke="#BB377D" stroke-miterlimit="10" d="M25.333,12.667c1.914,0.249,2.755,1.957,4,3.333"/>
<text transform="matrix(1 0 0 1 25.3335 35.3335)" fill="#FFFFFF" font-family="'JSArirangPPURI-Regular-KSCpc-EUC-H'" font-size="36">i</text>
<text transform="matrix(1 0 0 1 56.3335 34)" fill="#BB377D" font-family="'New-Gulim'" font-size="30">INTERIOR</text>
</svg>
